<svg xmlns="http://www.w3.org/2000/svg" viewBox="0 0 1200 760" role="img">
  <defs><linearGradient id="outline-sky" x1="0" y1="0" x2="0" y2="1"><stop stop-color="#1d2249"/><stop offset="1" stop-color="#3c6570"/></linearGradient></defs>
  <rect width="1200" height="760" fill="url(#outline-sky)"/>
  <circle cx="936" cy="156" r="104" fill="#f6dc9d" opacity=".9"/>
  <path d="M0 580c204-75 383-20 576 9 185 27 388-52 624-32v203H0Z" fill="#31424c"/>
  <path d="M0 664c204-34 339-6 522 18 208 27 422-31 678-34v104H0Z" fill="#222e3d"/>
  <g fill="none" stroke="#bcefd8" stroke-width="12" stroke-linecap="round" stroke-linejoin="round">
    <circle cx="605" cy="366" r="93"/><path d="m551 309-34-58 76 34M665 286l53-46-21 80"/>
    <path d="M540 570c-6-111 13-174 74-190 63-17 112 20 124 88 9 50-6 112-23 158"/>
    <path d="M573 559c-36 41-53 83-58 119M687 562c34 35 46 71 52 116"/>
    <path d="M723 447h84v119h-84Z" stroke="#ffd37c"/><path d="M807 447V267M811 271h92l-37 46-55-4Z" stroke="#ff9e91"/>
    <path d="M536 603c74 24 133 23 199 0" stroke="#8ecbff" opacity=".8"/>
  </g>
  <g fill="#f6f8fb" opacity=".8"><circle cx="228" cy="162" r="5"/><circle cx="370" cy="278" r="4"/><circle cx="1060" cy="304" r="4"/></g>
</svg>
